<svg width="21" height="21" viewBox="0 0 21 21" fill="none" xmlns="http://www.w3.org/2000/svg">
<path fill-rule="evenodd" clip-rule="evenodd" d="M12.1799 8.3125H10.4299V5.6875H7.80493V3.9375H10.4299V1.3125H12.1799V3.9375H14.8049V5.6875H12.1799V8.3125ZM5.18868 17.9375C5.18868 16.975 5.96743 16.1875 6.92993 16.1875C7.89243 16.1875 8.67993 16.975 8.67993 17.9375C8.67993 18.9 7.89243 19.6875 6.92993 19.6875C5.96743 19.6875 5.18868 18.9 5.18868 17.9375ZM15.6799 16.1875C14.7174 16.1875 13.9387 16.975 13.9387 17.9375C13.9387 18.9 14.7174 19.6875 15.6799 19.6875C16.6424 19.6875 17.4299 18.9 17.4299 17.9375C17.4299 16.975 16.6424 16.1875 15.6799 16.1875ZM14.4112 11.8125H7.89243L6.92993 13.5625H17.4299V15.3125H6.92993C5.59993 15.3125 4.75993 13.8862 5.39868 12.7137L6.57993 10.5788L3.42993 3.9375H1.67993V2.1875H4.54118L8.26868 10.0625H14.4112L17.7974 3.9375L19.3199 4.7775L15.9424 10.9113C15.6449 11.4538 15.0674 11.8125 14.4112 11.8125Z" fill="#FAFAFA"/>
</svg>
