<svg width="27" height="28" viewBox="0 0 27 28" fill="none" xmlns="http://www.w3.org/2000/svg">
<path fill-rule="evenodd" clip-rule="evenodd" d="M16.7281 16.3726C16.4172 16.9395 15.8138 17.3143 15.1281 17.3143H8.31662L7.31091 19.1429H18.2823V20.9715H7.31091C5.9212 20.9715 5.04348 19.4812 5.71091 18.256L6.9452 16.0252L3.65377 9.08574H1.8252V7.25717H4.81491L5.67434 9.08574H19.2058C19.9006 9.08574 20.3395 9.83546 20.0012 10.4389L16.7281 16.3726ZM17.6515 10.9143H6.54291L8.70976 15.4857H15.1281L17.6515 10.9143ZM7.31091 21.8857C6.30519 21.8857 5.49148 22.7086 5.49148 23.7143C5.49148 24.72 6.30519 25.5429 7.31091 25.5429C8.31662 25.5429 9.13948 24.72 9.13948 23.7143C9.13948 22.7086 8.31662 21.8857 7.31091 21.8857ZM14.6343 23.7143C14.6343 22.7086 15.4481 21.8857 16.4538 21.8857C17.4595 21.8857 18.2823 22.7086 18.2823 23.7143C18.2823 24.72 17.4595 25.5429 16.4538 25.5429C15.4481 25.5429 14.6343 24.72 14.6343 23.7143Z" fill="white"/>
<circle cx="20" cy="7" r="7" fill="#3CD3C1"/>
<path d="M18.8219 8.736C19.3339 8.30933 19.7419 7.95467 20.0459 7.672C20.3499 7.384 20.6032 7.08533 20.8059 6.776C21.0086 6.46667 21.1099 6.16267 21.1099 5.864C21.1099 5.592 21.0459 5.37867 20.9179 5.224C20.7899 5.06933 20.5926 4.992 20.3259 4.992C20.0592 4.992 19.8539 5.08267 19.7099 5.264C19.5659 5.44 19.4912 5.68267 19.4859 5.992H18.3979C18.4192 5.352 18.6086 4.86667 18.9659 4.536C19.3286 4.20533 19.7872 4.04 20.3419 4.04C20.9499 4.04 21.4166 4.20267 21.7419 4.528C22.0672 4.848 22.2299 5.272 22.2299 5.8C22.2299 6.216 22.1179 6.61333 21.8939 6.992C21.6699 7.37067 21.4139 7.70133 21.1259 7.984C20.8379 8.26133 20.4619 8.59733 19.9979 8.992H22.3579V9.92H18.4059V9.088L18.8219 8.736Z" fill="white"/>
</svg>
