<svg width="20" height="20" viewBox="0 0 20 20" fill="none" xmlns="http://www.w3.org/2000/svg">
<path fill-rule="evenodd" clip-rule="evenodd" d="M10 2.915C11.09 1.635 12.76 0.825001 14.5 0.825001C17.58 0.825001 20 3.245 20 6.325C20 10.1019 16.6056 13.1799 11.4627 17.8435L11.45 17.855L10 19.175L8.55 17.865L8.51052 17.8291C3.38263 13.1692 0 10.0953 0 6.325C0 3.245 2.42 0.825001 5.5 0.825001C7.24 0.825001 8.91 1.635 10 2.915ZM10 16.475L10.1 16.375C14.86 12.065 18 9.215 18 6.325C18 4.325 16.5 2.825 14.5 2.825C12.96 2.825 11.46 3.815 10.94 5.185H9.07C8.54 3.815 7.04 2.825 5.5 2.825C3.5 2.825 2 4.325 2 6.325C2 9.215 5.14 12.065 9.9 16.375L10 16.475Z" fill="#F231A5"/>
</svg>
