<svg width="18" height="18" viewBox="0 0 18 18" fill="none" xmlns="http://www.w3.org/2000/svg">
<path d="M12.4998 11H11.7098L11.4298 10.73C12.4098 9.59 12.9998 8.11 12.9998 6.5C12.9998 2.91 10.0898 0 6.49982 0C2.90982 0 -0.000183105 2.91 -0.000183105 6.5C-0.000183105 10.09 2.90982 13 6.49982 13C8.10982 13 9.58982 12.41 10.7298 11.43L10.9998 11.71V12.5L15.9998 17.49L17.4898 16L12.4998 11ZM6.49982 11C4.00982 11 1.99982 8.99 1.99982 6.5C1.99982 4.01 4.00982 2 6.49982 2C8.98982 2 10.9998 4.01 10.9998 6.5C10.9998 8.99 8.98982 11 6.49982 11Z" fill="#DADADA"/>
</svg>
