<svg width="64" height="24" viewBox="0 0 64 24" fill="none" xmlns="http://www.w3.org/2000/svg">
<path d="M7.75619 6.88V14.896C7.75619 15.888 7.45219 16.672 6.84419 17.248C6.24685 17.824 5.45752 18.112 4.47619 18.112C3.49485 18.112 2.70019 17.824 2.09219 17.248C1.49485 16.672 1.19619 15.888 1.19619 14.896H3.03619C3.04685 15.3867 3.16952 15.776 3.40419 16.064C3.64952 16.352 4.00685 16.496 4.47619 16.496C4.94552 16.496 5.30285 16.352 5.54819 16.064C5.79352 15.7653 5.91619 15.376 5.91619 14.896V6.88H7.75619ZM14.5474 18.144C13.7154 18.144 12.9634 17.9573 12.2914 17.584C11.6194 17.2 11.0914 16.6667 10.7074 15.984C10.3234 15.2907 10.1314 14.4907 10.1314 13.584C10.1314 12.688 10.3288 11.8933 10.7234 11.2C11.1181 10.5067 11.6568 9.97333 12.3394 9.6C13.0221 9.22667 13.7848 9.04 14.6274 9.04C15.4701 9.04 16.2328 9.22667 16.9154 9.6C17.5981 9.97333 18.1368 10.5067 18.5314 11.2C18.9261 11.8933 19.1234 12.688 19.1234 13.584C19.1234 14.48 18.9208 15.2747 18.5154 15.968C18.1101 16.6613 17.5554 17.2 16.8514 17.584C16.1581 17.9573 15.3901 18.144 14.5474 18.144ZM14.5474 16.56C15.0168 16.56 15.4541 16.448 15.8594 16.224C16.2754 16 16.6114 15.664 16.8674 15.216C17.1234 14.768 17.2514 14.224 17.2514 13.584C17.2514 12.944 17.1288 12.4053 16.8834 11.968C16.6381 11.52 16.3128 11.184 15.9074 10.96C15.5021 10.736 15.0648 10.624 14.5954 10.624C14.1261 10.624 13.6888 10.736 13.2834 10.96C12.8888 11.184 12.5741 11.52 12.3394 11.968C12.1048 12.4053 11.9874 12.944 11.9874 13.584C11.9874 14.5333 12.2274 15.2693 12.7074 15.792C13.1981 16.304 13.8114 16.56 14.5474 16.56ZM25.4866 9.04C26.1586 9.04 26.7559 9.184 27.2786 9.472C27.8119 9.76 28.2279 10.1867 28.5266 10.752C28.8359 11.3173 28.9906 12 28.9906 12.8V18H27.1826V13.072C27.1826 12.2827 26.9852 11.68 26.5906 11.264C26.1959 10.8373 25.6572 10.624 24.9746 10.624C24.2919 10.624 23.7479 10.8373 23.3426 11.264C22.9479 11.68 22.7506 12.2827 22.7506 13.072V18H20.9266V6.16H22.7506V10.208C23.0599 9.83467 23.4492 9.54667 23.9186 9.344C24.3986 9.14133 24.9212 9.04 25.4866 9.04ZM35.7652 9.04C36.4585 9.04 37.0772 9.184 37.6212 9.472C38.1759 9.76 38.6079 10.1867 38.9172 10.752C39.2265 11.3173 39.3812 12 39.3812 12.8V18H37.5732V13.072C37.5732 12.2827 37.3759 11.68 36.9812 11.264C36.5865 10.8373 36.0479 10.624 35.3652 10.624C34.6825 10.624 34.1385 10.8373 33.7332 11.264C33.3385 11.68 33.1412 12.2827 33.1412 13.072V18H31.3172V9.184H33.1412V10.192C33.4399 9.82933 33.8185 9.54667 34.2772 9.344C34.7465 9.14133 35.2425 9.04 35.7652 9.04Z" fill="#FAFAFA"/>
<path d="M50 10L56.5 16L63 10" stroke="#8F8F8F" stroke-width="1.5"/>
</svg>
